<svg xmlns="http://www.w3.org/2000/svg" width="375" viewBox="0 0 375 375" height="375" version="1.0"><defs><clipPath id="a"><path d="M 63.089844 63.089844 L 312.089844 63.089844 L 312.089844 312.089844 L 63.089844 312.089844 Z M 63.089844 63.089844"/></clipPath><clipPath id="b"><path d="M 255 51 L 327.203125 51 L 327.203125 152 L 255 152 Z M 255 51"/></clipPath><clipPath id="c"><path d="M 204 82 L 251 82 L 251 180.75 L 204 180.75 Z M 204 82"/></clipPath><clipPath id="d"><path d="M 234 37.5 L 266 37.5 L 266 87 L 234 87 Z M 234 37.5"/></clipPath></defs><g clip-path="url(#a)"><path fill="#A6A6A6" d="M 312.089844 187.589844 C 312.089844 189.628906 312.042969 191.664062 311.941406 193.699219 C 311.839844 195.734375 311.691406 197.765625 311.492188 199.792969 C 311.292969 201.820312 311.042969 203.84375 310.742188 205.859375 C 310.445312 207.875 310.097656 209.882812 309.699219 211.878906 C 309.300781 213.878906 308.855469 215.867188 308.359375 217.84375 C 307.863281 219.820312 307.320312 221.78125 306.730469 223.730469 C 306.140625 225.679688 305.5 227.617188 304.8125 229.535156 C 304.128906 231.453125 303.394531 233.351562 302.613281 235.234375 C 301.835938 237.117188 301.007812 238.980469 300.136719 240.820312 C 299.265625 242.664062 298.351562 244.484375 297.390625 246.28125 C 296.429688 248.078125 295.425781 249.847656 294.378906 251.597656 C 293.332031 253.34375 292.242188 255.066406 291.109375 256.757812 C 289.976562 258.453125 288.804688 260.121094 287.589844 261.753906 C 286.375 263.390625 285.125 265 283.832031 266.574219 C 282.539062 268.148438 281.207031 269.691406 279.839844 271.199219 C 278.472656 272.710938 277.066406 274.183594 275.625 275.625 C 274.183594 277.066406 272.710938 278.472656 271.199219 279.839844 C 269.691406 281.207031 268.148438 282.539062 266.574219 283.832031 C 265 285.125 263.390625 286.375 261.753906 287.589844 C 260.121094 288.804688 258.453125 289.976562 256.757812 291.109375 C 255.066406 292.242188 253.34375 293.332031 251.597656 294.378906 C 249.847656 295.425781 248.078125 296.429688 246.28125 297.390625 C 244.484375 298.351562 242.664062 299.265625 240.820312 300.136719 C 238.980469 301.007812 237.117188 301.835938 235.234375 302.613281 C 233.351562 303.394531 231.453125 304.128906 229.535156 304.8125 C 227.617188 305.5 225.679688 306.140625 223.730469 306.730469 C 221.78125 307.320312 219.820312 307.863281 217.84375 308.359375 C 215.867188 308.855469 213.878906 309.300781 211.878906 309.699219 C 209.882812 310.097656 207.875 310.445312 205.859375 310.742188 C 203.84375 311.042969 201.820312 311.292969 199.792969 311.492188 C 197.765625 311.691406 195.734375 311.839844 193.699219 311.941406 C 191.664062 312.042969 189.628906 312.089844 187.589844 312.089844 C 185.554688 312.089844 183.515625 312.042969 181.480469 311.941406 C 179.445312 311.839844 177.414062 311.691406 175.386719 311.492188 C 173.359375 311.292969 171.339844 311.042969 169.324219 310.742188 C 167.308594 310.445312 165.300781 310.097656 163.300781 309.699219 C 161.304688 309.300781 159.316406 308.855469 157.339844 308.359375 C 155.363281 307.863281 153.402344 307.320312 151.449219 306.730469 C 149.5 306.140625 147.566406 305.5 145.648438 304.8125 C 143.730469 304.128906 141.828125 303.394531 139.945312 302.613281 C 138.066406 301.835938 136.203125 301.007812 134.359375 300.136719 C 132.519531 299.265625 130.699219 298.351562 128.902344 297.390625 C 127.105469 296.429688 125.332031 295.425781 123.585938 294.378906 C 121.835938 293.332031 120.117188 292.242188 118.421875 291.109375 C 116.730469 289.976562 115.0625 288.804688 113.425781 287.589844 C 111.789062 286.375 110.183594 285.125 108.609375 283.832031 C 107.035156 282.539062 105.492188 281.207031 103.980469 279.839844 C 102.472656 278.472656 100.996094 277.066406 99.554688 275.625 C 98.117188 274.183594 96.710938 272.710938 95.34375 271.199219 C 93.972656 269.691406 92.644531 268.148438 91.351562 266.574219 C 90.058594 265 88.804688 263.390625 87.59375 261.753906 C 86.378906 260.121094 85.207031 258.453125 84.074219 256.757812 C 82.941406 255.066406 81.851562 253.34375 80.804688 251.597656 C 79.757812 249.847656 78.753906 248.078125 77.792969 246.28125 C 76.832031 244.484375 75.914062 242.664062 75.042969 240.820312 C 74.171875 238.980469 73.347656 237.117188 72.566406 235.234375 C 71.789062 233.351562 71.054688 231.453125 70.367188 229.535156 C 69.683594 227.617188 69.042969 225.679688 68.453125 223.730469 C 67.859375 221.78125 67.316406 219.820312 66.824219 217.84375 C 66.328125 215.867188 65.882812 213.878906 65.484375 211.878906 C 65.085938 209.882812 64.738281 207.875 64.4375 205.859375 C 64.140625 203.84375 63.890625 201.820312 63.691406 199.792969 C 63.492188 197.765625 63.339844 195.734375 63.242188 193.699219 C 63.140625 191.664062 63.089844 189.628906 63.089844 187.589844 C 63.089844 185.554688 63.140625 183.515625 63.242188 181.480469 C 63.339844 179.445312 63.492188 177.414062 63.691406 175.386719 C 63.890625 173.359375 64.140625 171.339844 64.4375 169.324219 C 64.738281 167.308594 65.085938 165.300781 65.484375 163.300781 C 65.882812 161.304688 66.328125 159.316406 66.824219 157.339844 C 67.316406 155.363281 67.859375 153.402344 68.453125 151.449219 C 69.042969 149.5 69.683594 147.566406 70.367188 145.648438 C 71.054688 143.730469 71.789062 141.828125 72.566406 139.945312 C 73.347656 138.066406 74.171875 136.203125 75.042969 134.359375 C 75.914062 132.519531 76.832031 130.699219 77.792969 128.902344 C 78.753906 127.105469 79.757812 125.332031 80.804688 123.585938 C 81.851562 121.835938 82.941406 120.117188 84.074219 118.421875 C 85.207031 116.730469 86.378906 115.0625 87.59375 113.425781 C 88.804688 111.789062 90.058594 110.183594 91.351562 108.609375 C 92.644531 107.035156 93.972656 105.492188 95.34375 103.980469 C 96.710938 102.472656 98.117188 100.996094 99.554688 99.554688 C 100.996094 98.117188 102.472656 96.710938 103.980469 95.34375 C 105.492188 93.972656 107.035156 92.644531 108.609375 91.351562 C 110.183594 90.058594 111.789062 88.804688 113.425781 87.59375 C 115.0625 86.378906 116.730469 85.207031 118.421875 84.074219 C 120.117188 82.941406 121.835938 81.851562 123.585938 80.804688 C 125.332031 79.757812 127.105469 78.753906 128.902344 77.792969 C 130.699219 76.832031 132.519531 75.914062 134.359375 75.042969 C 136.203125 74.171875 138.066406 73.347656 139.945312 72.566406 C 141.828125 71.789062 143.730469 71.054688 145.648438 70.367188 C 147.566406 69.683594 149.5 69.042969 151.449219 68.453125 C 153.402344 67.859375 155.363281 67.316406 157.339844 66.824219 C 159.316406 66.328125 161.304688 65.882812 163.300781 65.484375 C 165.300781 65.085938 167.308594 64.738281 169.324219 64.4375 C 171.339844 64.140625 173.359375 63.890625 175.386719 63.691406 C 177.414062 63.492188 179.445312 63.339844 181.480469 63.242188 C 183.515625 63.140625 185.554688 63.089844 187.589844 63.089844 C 189.628906 63.089844 191.664062 63.140625 193.699219 63.242188 C 195.734375 63.339844 197.765625 63.492188 199.792969 63.691406 C 201.820312 63.890625 203.84375 64.140625 205.859375 64.4375 C 207.875 64.738281 209.882812 65.085938 211.878906 65.484375 C 213.878906 65.882812 215.867188 66.328125 217.84375 66.824219 C 219.820312 67.316406 221.78125 67.859375 223.730469 68.453125 C 225.679688 69.042969 227.617188 69.683594 229.535156 70.367188 C 231.453125 71.054688 233.351562 71.789062 235.234375 72.566406 C 237.117188 73.347656 238.980469 74.171875 240.820312 75.042969 C 242.664062 75.914062 244.484375 76.832031 246.28125 77.792969 C 248.078125 78.753906 249.847656 79.757812 251.597656 80.804688 C 253.34375 81.851562 255.066406 82.941406 256.757812 84.074219 C 258.453125 85.207031 260.121094 86.378906 261.753906 87.59375 C 263.390625 88.804688 265 90.058594 266.574219 91.351562 C 268.148438 92.644531 269.691406 93.972656 271.199219 95.34375 C 272.710938 96.710938 274.183594 98.117188 275.625 99.554688 C 277.066406 100.996094 278.472656 102.472656 279.839844 103.980469 C 281.207031 105.492188 282.539062 107.035156 283.832031 108.609375 C 285.125 110.183594 286.375 111.789062 287.589844 113.425781 C 288.804688 115.0625 289.976562 116.730469 291.109375 118.421875 C 292.242188 120.117188 293.332031 121.835938 294.378906 123.585938 C 295.425781 125.332031 296.429688 127.105469 297.390625 128.902344 C 298.351562 130.699219 299.265625 132.519531 300.136719 134.359375 C 301.007812 136.203125 301.835938 138.066406 302.613281 139.945312 C 303.394531 141.828125 304.128906 143.730469 304.8125 145.648438 C 305.5 147.566406 306.140625 149.5 306.730469 151.449219 C 307.320312 153.402344 307.863281 155.363281 308.359375 157.339844 C 308.855469 159.316406 309.300781 161.304688 309.699219 163.300781 C 310.097656 165.300781 310.445312 167.308594 310.742188 169.324219 C 311.042969 171.339844 311.292969 173.359375 311.492188 175.386719 C 311.691406 177.414062 311.839844 179.445312 311.941406 181.480469 C 312.042969 183.515625 312.089844 185.554688 312.089844 187.589844 Z M 312.089844 187.589844"/></g><path fill="#FFF" d="M 152.109375 134.554688 L 244.238281 187.714844 C 247.476562 189.582031 247.476562 194.3125 244.238281 196.304688 L 152.109375 249.46875 C 148.871094 251.335938 144.761719 248.96875 144.761719 245.234375 L 144.761719 138.910156 C 144.640625 135.050781 148.746094 132.6875 152.109375 134.554688 Z M 152.109375 134.554688"/><g clip-path="url(#b)"><path fill="#1C191A" d="M 280.238281 51.324219 L 273.058594 111.929688 C 272.289062 111.804688 271.5 111.746094 270.683594 111.769531 C 269.074219 111.804688 267.429688 112.125 265.804688 112.710938 C 258.890625 115.207031 254.378906 121.742188 255.53125 127.585938 C 256.402344 132.050781 260.464844 135.050781 265.628906 135.050781 C 265.738281 135.050781 265.847656 135.050781 265.953125 135.046875 C 267.566406 135.007812 269.210938 134.691406 270.839844 134.101562 C 276.410156 132.089844 280.605469 127.347656 281.289062 122.257812 L 286.953125 74.386719 L 315.964844 89.808594 L 311.363281 128.703125 C 310.617188 128.589844 309.824219 128.535156 309.058594 128.558594 C 307.449219 128.59375 305.808594 128.910156 304.183594 129.496094 C 297.277344 131.992188 292.761719 138.523438 293.910156 144.378906 C 294.785156 148.84375 298.84375 151.839844 304.007812 151.839844 C 304.117188 151.839844 304.222656 151.839844 304.332031 151.835938 C 305.945312 151.796875 307.585938 151.480469 309.21875 150.890625 C 314.78125 148.882812 318.949219 144.164062 319.589844 139.125 L 327.164062 75.179688 L 280.238281 51.324219"/></g><g clip-path="url(#c)"><path fill="#1C191A" d="M 239.324219 100.632812 C 238.339844 99.855469 237.277344 99.113281 236.066406 98.351562 C 235.519531 98.007812 234.96875 97.683594 234.429688 97.378906 C 233.800781 97.023438 233.226562 96.730469 232.699219 96.460938 C 232.03125 96.128906 231.375 95.808594 230.730469 95.5 C 229.371094 94.84375 228.089844 94.230469 226.980469 93.554688 C 225.515625 92.679688 224.445312 91.722656 223.792969 90.699219 C 223.605469 90.40625 223.214844 89.597656 222.898438 88.949219 L 222.386719 87.898438 C 221.910156 86.925781 221.367188 85.820312 220.28125 84.375 C 219.199219 82.941406 217.5625 82.117188 215.804688 82.117188 C 215.113281 82.117188 214.425781 82.246094 213.78125 82.492188 C 213.527344 82.585938 213.28125 82.699219 213.03125 82.835938 C 210.484375 84.222656 209.09375 87.253906 209.65625 90.210938 L 222.714844 147.621094 C 221.375 147.769531 220.023438 148.109375 218.675781 148.625 C 216.683594 149.386719 214.777344 150.507812 213.003906 151.964844 C 205.472656 158.152344 202.691406 168.265625 206.675781 175 C 208.785156 178.550781 212.503906 180.589844 216.878906 180.589844 C 218.757812 180.589844 220.683594 180.21875 222.597656 179.488281 C 224.59375 178.722656 226.503906 177.597656 228.285156 176.136719 C 234.355469 171.140625 237.488281 163.398438 236.074219 156.84375 L 224.558594 106.222656 C 225.164062 106.441406 225.761719 106.644531 226.347656 106.847656 C 226.96875 107.0625 227.578125 107.269531 228.117188 107.46875 L 229.539062 108.019531 C 230.085938 108.253906 230.503906 108.4375 230.871094 108.617188 C 231.738281 109.027344 232.585938 109.484375 233.398438 109.980469 C 236.921875 112.109375 239.429688 114.84375 240.859375 118.144531 C 242.40625 121.601562 242.789062 126.082031 241.933594 130.777344 C 241.617188 132.574219 242.644531 134.316406 244.324219 134.835938 C 245.042969 135.054688 245.816406 135.03125 246.550781 134.753906 C 247.609375 134.347656 248.40625 133.472656 248.730469 132.367188 C 250.601562 126.164062 250.71875 119.8125 249.066406 114.507812 C 247.445312 109.203125 244.078125 104.40625 239.324219 100.632812"/></g><g clip-path="url(#d)"><path fill="#1C191A" d="M 263.207031 50.800781 C 262.855469 50.261719 262.460938 49.722656 262 49.152344 C 261.789062 48.894531 261.574219 48.640625 261.363281 48.402344 C 261.117188 48.125 260.886719 47.886719 260.671875 47.667969 C 260.40625 47.398438 260.136719 47.132812 259.875 46.875 C 259.324219 46.332031 258.800781 45.816406 258.371094 45.304688 C 257.804688 44.632812 257.445312 43.988281 257.296875 43.382812 C 257.253906 43.210938 257.199219 42.75 257.152344 42.382812 L 257.074219 41.785156 C 257.003906 41.230469 256.925781 40.601562 256.636719 39.71875 C 256.351562 38.839844 255.691406 38.167969 254.832031 37.875 C 254.496094 37.761719 254.140625 37.707031 253.78125 37.71875 C 253.644531 37.722656 253.507812 37.738281 253.363281 37.765625 C 251.890625 38.015625 250.710938 39.261719 250.492188 40.792969 L 247.300781 70.925781 C 246.621094 70.777344 245.90625 70.714844 245.164062 70.742188 C 244.066406 70.785156 242.953125 71.015625 241.847656 71.429688 C 237.148438 73.1875 234.109375 77.652344 234.929688 81.59375 C 235.367188 83.675781 236.839844 85.285156 238.972656 86.015625 C 239.882812 86.324219 240.882812 86.464844 241.9375 86.429688 C 243.039062 86.386719 244.15625 86.15625 245.265625 85.742188 C 249.054688 84.316406 251.867188 81.070312 252.269531 77.636719 L 255.085938 51.070312 C 255.34375 51.277344 255.601562 51.476562 255.851562 51.671875 C 256.121094 51.878906 256.382812 52.082031 256.613281 52.269531 L 257.210938 52.773438 C 257.441406 52.980469 257.613281 53.136719 257.761719 53.285156 C 258.117188 53.628906 258.453125 53.992188 258.765625 54.367188 C 260.128906 55.992188 260.894531 57.738281 261.039062 59.585938 C 261.21875 61.527344 260.660156 63.773438 259.460938 65.917969 C 259.011719 66.738281 259.21875 67.757812 259.949219 68.289062 C 260.265625 68.519531 260.648438 68.636719 261.050781 68.621094 C 261.632812 68.601562 262.167969 68.304688 262.507812 67.820312 C 264.453125 65.109375 265.5625 62.039062 265.644531 59.179688 C 265.734375 56.324219 264.894531 53.433594 263.207031 50.800781"/></g></svg>