<svg xmlns="http://www.w3.org/2000/svg" width="375" viewBox="0 0 375 375" height="375" version="1.0"><defs><clipPath id="a"><path d="M 91.816406 91.816406 L 283.066406 91.816406 L 283.066406 283.066406 L 91.816406 283.066406 Z M 91.816406 91.816406"/></clipPath></defs><g clip-path="url(#a)"><path fill="#292F33" d="M 102.441406 283.066406 C 102.441406 283.066406 91.816406 283.066406 91.816406 272.441406 L 91.816406 102.441406 C 91.816406 102.441406 91.816406 91.816406 102.441406 91.816406 L 272.605469 91.816406 C 283.066406 91.816406 283.066406 102.441406 283.066406 102.441406 L 283.066406 272.441406 C 283.066406 272.441406 283.066406 283.066406 272.441406 283.066406 Z M 102.441406 283.066406"/></g><path fill="#E1E8ED" d="M 192.753906 267.128906 C 192.753906 267.128906 192.753906 272.441406 198.066406 272.441406 L 224.628906 272.441406 C 229.941406 272.441406 229.941406 267.128906 229.941406 267.128906 L 229.941406 118.378906 L 192.753906 118.378906 Z M 240.566406 118.378906 L 240.566406 267.128906 C 240.566406 267.128906 240.566406 272.441406 245.878906 272.441406 L 267.128906 272.441406 C 272.441406 272.441406 272.441406 267.128906 272.441406 267.128906 L 272.441406 118.378906 Z M 144.941406 267.128906 C 144.941406 267.128906 144.941406 272.441406 150.253906 272.441406 L 176.816406 272.441406 C 182.128906 272.441406 182.128906 267.128906 182.128906 267.128906 L 182.128906 118.378906 L 144.941406 118.378906 Z M 102.441406 267.128906 C 102.441406 267.128906 102.441406 272.441406 107.753906 272.441406 L 129.003906 272.441406 C 134.316406 272.441406 134.316406 267.128906 134.316406 267.128906 L 134.316406 118.378906 L 102.441406 118.378906 Z M 102.441406 267.128906"/><path fill="#292F33" d="M 251.191406 214.003906 C 251.191406 214.003906 251.191406 219.316406 245.878906 219.316406 L 224.628906 219.316406 C 219.316406 219.316406 219.316406 214.003906 219.316406 214.003906 L 219.316406 107.753906 L 251.191406 107.753906 Z M 203.378906 214.003906 C 203.378906 214.003906 203.378906 219.316406 198.066406 219.316406 L 176.816406 219.316406 C 171.503906 219.316406 171.503906 214.003906 171.503906 214.003906 L 171.503906 107.753906 L 203.378906 107.753906 Z M 155.566406 214.003906 C 155.566406 214.003906 155.566406 219.316406 150.253906 219.316406 L 129.003906 219.316406 C 123.691406 219.316406 123.691406 214.003906 123.691406 214.003906 L 123.691406 107.753906 L 155.566406 107.753906 Z M 155.566406 214.003906"/></svg>